# Max2Obj Version 4.0 Mar 10th, 2001
#
mtllib ./box1_lowres.mtl
g
# object Box01 to come ...
#
v  -0.353354 -0.485842 0.051390
v  -0.211390 -0.497001 0.047282
v  -0.185567 -0.510876 0.099024
v  -0.226293 -0.512181 0.135038
v  -0.295108 -0.519857 0.170558
v  -0.353513 -0.519323 0.194681
v  -0.439017 -0.505036 0.170828
v  -0.418693 -0.493915 0.086095
v  -0.499867 -0.429174 0.137370
v  -0.511212 -0.343423 0.102627
v  -0.499763 -0.284877 0.049282
v  -0.474682 -0.421354 0.054279
v  -0.438470 -0.229667 0.002513
v  -0.353648 -0.189921 -0.006361
v  -0.294386 -0.229617 -0.006856
v  -0.418527 -0.368311 0.009297
v  -0.353452 -0.425956 0.014894
v  -0.225937 -0.288846 -0.001507
v  -0.185254 -0.347332 -0.000840
v  -0.211492 -0.432804 0.007995
v  0.347046 -0.349413 -0.003232
v  0.432372 -0.291886 0.003608
v  0.432582 -0.421634 0.015235
v  0.302901 -0.435466 0.003819
v  0.499780 -0.224503 0.045027
v  0.512982 -0.183874 0.098089
v  0.514733 -0.224095 0.133384
v  0.497182 -0.356370 0.053567
v  0.514965 -0.290609 0.174456
v  0.512686 -0.349927 0.199069
v  0.499791 -0.435203 0.174186
v  0.497381 -0.421654 0.093650
v  0.303000 -0.503555 0.045480
v  0.432653 -0.485034 0.053872
v  0.432662 -0.503706 0.133295
v  0.346718 -0.514563 0.097613
v  -0.512982 0.183874 0.098089
v  -0.514733 0.224095 0.133384
v  -0.497182 0.356370 0.053567
v  -0.499780 0.224503 0.045027
v  -0.514965 0.290609 0.174456
v  -0.512686 0.349927 0.199069
v  -0.499791 0.435203 0.174186
v  -0.497381 0.421654 0.093650
v  -0.432662 0.503706 0.133295
v  -0.346718 0.514563 0.097613
v  -0.303000 0.503555 0.045480
v  -0.432653 0.485034 0.053872
v  -0.432373 0.291886 0.003608
v  -0.432582 0.421634 0.015235
v  -0.302901 0.435466 0.003819
v  -0.347046 0.349413 -0.003232
v  0.185254 0.347332 -0.000840
v  0.211492 0.432804 0.007995
v  0.353452 0.425956 0.014894
v  0.225937 0.288846 -0.001507
v  0.185567 0.510876 0.099024
v  0.226293 0.512181 0.135038
v  0.353354 0.485842 0.051390
v  0.211390 0.497001 0.047282
v  0.295108 0.519857 0.170558
v  0.353513 0.519323 0.194681
v  0.439017 0.505036 0.170828
v  0.418693 0.493915 0.086095
v  0.499763 0.284877 0.049282
v  0.474682 0.421354 0.054279
v  0.499867 0.429174 0.137370
v  0.511212 0.343423 0.102627
v  0.294386 0.229617 -0.006856
v  0.418527 0.368311 0.009297
v  0.438470 0.229667 0.002513
v  0.353648 0.189921 -0.006361
v  -0.343422 -0.511212 0.520129
v  -0.284877 -0.499763 0.573475
v  -0.421354 -0.474682 0.568478
v  -0.429174 -0.499867 0.485386
v  -0.229667 -0.438470 0.620243
v  -0.189921 -0.353648 0.629117
v  -0.229617 -0.294386 0.629612
v  -0.368311 -0.418527 0.613459
v  -0.288846 -0.225937 0.624263
v  -0.347332 -0.185254 0.623597
v  -0.432804 -0.211492 0.614761
v  -0.425956 -0.353452 0.607862
v  -0.512181 -0.226293 0.487719
v  -0.485842 -0.353354 0.571366
v  -0.497001 -0.211390 0.575474
v  -0.510875 -0.185567 0.523732
v  -0.505036 -0.439017 0.451928
v  -0.493915 -0.418693 0.536661
v  -0.519857 -0.295108 0.452198
v  -0.519323 -0.353513 0.428075
v  0.349927 -0.512686 0.423687
v  0.435203 -0.499791 0.448570
v  0.421654 -0.497381 0.529106
v  0.290609 -0.514965 0.448301
v  0.514563 -0.346718 0.525144
v  0.503555 -0.303000 0.577276
v  0.485034 -0.432653 0.568884
v  0.503706 -0.432662 0.489461
v  0.291886 -0.432373 0.619149
v  0.421634 -0.432582 0.607522
v  0.435466 -0.302901 0.618937
v  0.349413 -0.347046 0.625988
v  0.224095 -0.514733 0.489373
v  0.356370 -0.497182 0.569189
v  0.224503 -0.499780 0.577729
v  0.183874 -0.512982 0.524667
v  -0.514563 0.346718 0.525144
v  -0.503555 0.303000 0.577276
v  -0.485034 0.432653 0.568884
v  -0.503706 0.432662 0.489461
v  -0.349413 0.347046 0.625988
v  -0.291886 0.432372 0.619149
v  -0.421634 0.432582 0.607522
v  -0.435466 0.302901 0.618937
v  -0.224095 0.514733 0.489373
v  -0.356370 0.497182 0.569189
v  -0.224503 0.499780 0.577729
v  -0.183874 0.512982 0.524667
v  -0.435203 0.499791 0.448570
v  -0.421654 0.497381 0.529106
v  -0.290609 0.514965 0.448301
v  -0.349927 0.512686 0.423687
v  0.519323 0.353513 0.428075
v  0.505036 0.439017 0.451928
v  0.493915 0.418693 0.536661
v  0.519857 0.295108 0.452198
v  0.343422 0.511212 0.520129
v  0.284877 0.499763 0.573475
v  0.421354 0.474682 0.568478
v  0.429174 0.499867 0.485386
v  0.229617 0.294386 0.629612
v  0.368311 0.418527 0.613459
v  0.229667 0.438470 0.620243
v  0.189921 0.353648 0.629117
v  0.347332 0.185254 0.623597
v  0.432804 0.211492 0.614761
v  0.425956 0.353452 0.607862
v  0.288846 0.225937 0.624263
v  0.512181 0.226293 0.487719
v  0.485842 0.353354 0.571366
v  0.497001 0.211390 0.575474
v  0.510875 0.185567 0.523732
# 144 vertices

vt  3.113693 1.190008 5.682962
vt  3.301074 1.446614 5.324858
vt  3.266584 1.539934 4.991240
vt  3.179874 1.478706 4.893164
vt  3.064046 1.395971 4.996315
vt  2.974633 1.336548 5.131968
vt  2.906385 1.212097 5.524797
vt  3.003633 1.149217 5.777723
vt  2.813028 1.053052 5.589679
vt  2.729839 0.913574 5.463605
vt  2.689548 0.790318 5.532921
vt  2.901400 0.984515 5.887112
vt  2.691540 0.679739 5.412796
vt  2.740744 0.620677 4.996088
vt  2.976981 0.747439 4.864999
vt  2.955102 0.914677 5.721439
vt  3.109812 1.079095 5.653471
vt  3.251446 1.021110 4.781541
vt  3.381987 1.262899 4.905347
vt  3.341730 1.344357 5.291556
vt  3.062759 3.055562 5.447890
vt  2.823942 3.220510 5.556036
vt  2.987414 3.013052 5.961298
vt  3.204378 2.837742 5.605268
vt  2.578615 3.288091 5.390262
vt  2.454863 3.269005 5.006598
vt  2.515572 3.184239 4.912311
vt  2.797742 3.112954 5.739916
vt  2.599607 3.062516 4.932323
vt  2.662172 2.970161 5.060647
vt  2.786895 2.903677 5.463923
vt  2.843804 2.995348 5.766151
vt  3.191281 2.716819 5.639391
vt  3.008569 2.899650 5.991289
vt  2.949381 2.815479 5.646297
vt  3.088963 2.733754 5.524334
vt  1.545137 0.730995 5.006598
vt  1.484428 0.815761 4.912311
vt  1.202258 0.887046 5.739916
vt  1.421385 0.711909 5.390262
vt  1.400393 0.937483 4.932323
vt  1.337829 1.029839 5.060647
vt  1.213105 1.096323 5.463923
vt  1.156196 1.004652 5.766151
vt  1.050619 1.184521 5.646297
vt  0.911037 1.266246 5.524334
vt  0.808719 1.283181 5.639391
vt  0.991431 1.100350 5.991289
vt  1.176059 0.779490 5.556036
vt  1.012586 0.986948 5.961298
vt  0.795622 1.162258 5.605268
vt  0.937241 0.944438 5.447890
vt  0.618013 2.737101 4.905347
vt  0.658271 2.655643 5.291556
vt  0.890188 2.920905 5.653471
vt  0.748554 2.978891 4.781541
vt  0.733416 2.460066 4.991239
vt  0.820126 2.521294 4.893164
vt  0.886306 2.809992 5.682961
vt  0.698926 2.553386 5.324857
vt  0.935954 2.604029 4.996315
vt  1.025367 2.663452 5.131968
vt  1.093614 2.787903 5.524797
vt  0.996367 2.850783 5.777723
vt  1.310452 3.209682 5.532921
vt  1.098600 3.015485 5.887111
vt  1.186972 2.946948 5.589679
vt  1.270161 3.086426 5.463605
vt  1.023019 3.252561 4.864999
vt  1.044898 3.085323 5.721439
vt  1.308460 3.320261 5.412796
vt  1.259256 3.379323 4.996088
vt  2.573746 1.614568 5.463605
vt  2.527854 1.699110 5.532921
vt  2.480250 1.573703 5.887111
vt  2.570489 1.510190 5.589679
vt  2.451415 1.763553 5.412797
vt  2.382668 1.794494 4.996088
vt  2.324454 1.746930 4.864999
vt  2.416092 1.633832 5.721439
vt  2.253334 1.676129 4.781541
vt  2.204116 1.617303 4.905347
vt  2.222438 1.544795 5.291556
vt  2.356238 1.570686 5.653470
vt  2.286974 1.350474 4.893163
vt  2.366383 1.496244 5.682961
vt  2.229410 1.460631 5.324857
vt  2.222751 1.386754 4.991240
vt  2.524209 1.396961 5.524797
vt  2.442478 1.478027 5.777724
vt  2.383319 1.324752 4.996315
vt  2.461982 1.321333 5.131968
vt  2.681741 2.465313 5.060647
vt  2.604634 2.526497 5.463923
vt  2.530225 2.449497 5.766151
vt  2.679273 2.383332 4.932323
vt  2.383836 2.569649 5.524334
vt  2.314341 2.522403 5.639391
vt  2.431675 2.483937 5.991289
vt  2.487691 2.567770 5.646297
vt  2.437126 2.295095 5.556037
vt  2.419168 2.408560 5.961299
vt  2.304308 2.437488 5.605268
vt  2.353839 2.356251 5.447891
vt  2.649513 2.282773 4.912311
vt  2.512594 2.367416 5.739916
vt  2.536295 2.240906 5.390262
vt  2.613704 2.219976 5.006598
vt  1.616164 1.430351 5.524335
vt  1.685659 1.477597 5.639391
vt  1.568325 1.516063 5.991289
vt  1.512309 1.432230 5.646297
vt  1.646161 1.643749 5.447891
vt  1.562874 1.704905 5.556036
vt  1.580832 1.591440 5.961299
vt  1.695692 1.562512 5.605268
vt  1.350487 1.717227 4.912311
vt  1.487406 1.632584 5.739917
vt  1.463705 1.759094 5.390262
vt  1.386296 1.780024 5.006598
vt  1.395366 1.473503 5.463923
vt  1.469775 1.550503 5.766152
vt  1.320727 1.616668 4.932323
vt  1.318260 1.534687 5.060647
vt  1.538018 2.678667 5.131968
vt  1.475791 2.603039 5.524797
vt  1.557522 2.521973 5.777724
vt  1.616681 2.675248 4.996315
vt  1.426254 2.385432 5.463605
vt  1.472146 2.300890 5.532921
vt  1.519750 2.426296 5.887111
vt  1.429511 2.489810 5.589679
vt  1.675546 2.253070 4.864999
vt  1.583908 2.366168 5.721439
vt  1.548585 2.236447 5.412797
vt  1.617333 2.205506 4.996088
vt  1.795884 2.382697 4.905347
vt  1.777562 2.455205 5.291556
vt  1.643762 2.429314 5.653470
vt  1.746666 2.323871 4.781541
vt  1.713026 2.649526 4.893163
vt  1.633617 2.503756 5.682961
vt  1.770590 2.539369 5.324857
vt  1.777249 2.613246 4.991240
vt  -1.259256 0.620677 4.996088
vt  5.259256 3.379323 4.996088
vt  4.748554 2.978891 4.781541
vt  5.023019 3.252561 4.864999
vt  4.618012 2.737101 4.905347
# 149 texture vertices

vn  -1.248252 -2.954430 -1.396630
vn  -0.217095 -3.809082 -2.005347
vn  -0.034893 -1.014436 -0.060244
vn  -0.008798 -1.016341 -0.050013
vn  -0.012744 -1.015551 -0.055948
vn  -0.067137 -1.016826 -0.016170
vn  -0.420046 -0.927610 -0.029999
vn  -0.427057 -1.723360 -0.498306
vn  -3.892893 -2.958109 -0.236533
vn  -1.004742 -0.130540 -0.071981
vn  -1.785435 -0.013908 -0.516883
vn  -1.483820 -2.014375 -0.978963
vn  -0.561481 -0.072696 -0.545121
vn  -0.083327 -0.026457 -0.653117
vn  -0.006748 -0.058980 -0.654420
vn  -0.272286 -0.294335 -0.602689
vn  -0.149981 -0.428818 -0.586833
vn  -0.023539 -0.074227 -0.653617
vn  -0.033359 -0.071980 -0.653545
vn  -0.043232 -0.382025 -0.607119
vn  0.080109 -0.108181 -0.649792
vn  0.414978 -0.054274 -0.597735
vn  0.519684 -0.296673 -0.530690
vn  0.080692 -0.542842 -0.552415
vn  3.975123 -0.179377 -1.891795
vn  1.014853 -0.012341 -0.060990
vn  1.018333 -0.023752 -0.024973
vn  3.393514 -0.979732 -1.060663
vn  1.017982 -0.049038 -0.012567
vn  1.017204 -0.065409 -0.006199
vn  1.737119 -0.863610 -0.003155
vn  1.837337 -0.480619 -0.327511
vn  -0.026701 -1.707745 -0.583511
vn  2.748308 -2.885694 -1.564989
vn  0.579032 -0.836929 -0.037199
vn  0.107896 -1.010293 -0.052796
vn  -1.014853 0.012341 -0.060990
vn  -1.018333 0.023752 -0.024973
vn  -2.659539 0.894556 -0.609079
vn  -2.492289 -0.000061 -0.999612
vn  -1.017982 0.049038 -0.012567
vn  -1.017204 0.065409 -0.006199
vn  -1.737119 0.863610 -0.003155
vn  -1.837337 0.480618 -0.327511
vn  -0.579032 0.836929 -0.037199
vn  -0.107896 1.010293 -0.052796
vn  0.020524 1.713171 -0.560506
vn  -2.402626 1.502464 -0.627870
vn  -0.414978 0.054274 -0.597735
vn  -0.519684 0.296673 -0.530690
vn  -0.080692 0.542842 -0.552415
vn  -0.080109 0.108181 -0.649792
vn  0.033359 0.071980 -0.653545
vn  0.043232 0.382025 -0.607119
vn  0.149981 0.428819 -0.586832
vn  0.023539 0.074228 -0.653617
vn  0.034893 1.014436 -0.060244
vn  0.008798 1.016341 -0.050013
vn  1.336334 3.653046 -1.870623
vn  0.039658 2.410398 -1.058347
vn  0.012744 1.015551 -0.055948
vn  0.067137 1.016826 -0.016170
vn  0.978766 1.631900 0.027260
vn  0.427057 1.723360 -0.498307
vn  1.782566 0.010746 -0.529122
vn  1.483820 2.014375 -0.978963
vn  0.846079 0.559749 -0.064003
vn  1.004742 0.130540 -0.071981
vn  0.006748 0.058980 -0.654420
vn  0.272286 0.294335 -0.602689
vn  0.561481 0.072696 -0.545121
vn  0.083327 0.026457 -0.653117
vn  -0.130540 -1.004742 0.071981
vn  -0.013908 -1.785435 0.516883
vn  -2.341640 -2.908824 1.892403
vn  -0.559749 -0.846079 0.064003
vn  -0.072696 -0.561481 0.545122
vn  -0.026457 -0.083327 0.653117
vn  -0.058980 -0.006747 0.654420
vn  -0.294335 -0.272286 0.602689
vn  -0.074227 -0.023539 0.653617
vn  -0.071979 -0.033360 0.653545
vn  -0.382025 -0.043232 0.607119
vn  -0.428819 -0.149981 0.586832
vn  -1.016341 -0.008797 0.050013
vn  -3.653045 -1.336333 1.870624
vn  -3.809084 -0.217096 2.005346
vn  -1.014436 -0.034893 0.060244
vn  -1.637403 -0.944594 -0.023352
vn  -1.407827 -1.134003 0.502555
vn  -1.015551 -0.012744 0.055948
vn  -1.016826 -0.067137 0.016170
vn  0.065409 -1.017204 0.006199
vn  0.375358 -0.947311 0.017999
vn  1.082728 -1.587369 0.336689
vn  0.049038 -1.017982 0.012567
vn  1.010293 -0.107896 0.052796
vn  1.713171 0.020524 0.560505
vn  1.502464 -2.402626 0.627870
vn  2.453352 -1.564497 -0.004787
vn  0.054273 -0.414978 0.597735
vn  0.296673 -0.519684 0.530690
vn  0.542842 -0.080691 0.552415
vn  0.108182 -0.080109 0.649792
vn  0.023752 -1.018333 0.024973
vn  0.894591 -2.659537 0.609070
vn  -0.000061 -2.492290 0.999612
vn  0.012341 -1.014853 0.060990
vn  -1.010293 0.107896 0.052796
vn  -1.707745 -0.026702 0.583512
vn  -2.885695 2.748306 1.564988
vn  -2.453352 1.564498 -0.004787
vn  -0.108181 0.080110 0.649792
vn  -0.054273 0.414978 0.597735
vn  -0.296673 0.519683 0.530690
vn  -0.542842 0.080691 0.552415
vn  -0.023752 1.018333 0.024973
vn  -0.979731 3.393512 1.060663
vn  -0.179376 3.975121 1.891796
vn  -0.012341 1.014853 0.060990
vn  -0.375358 0.947311 0.017999
vn  -1.088494 1.580426 0.346310
vn  -0.049038 1.017982 0.012567
vn  -0.065409 1.017204 0.006199
vn  1.016826 0.067137 0.016170
vn  0.927610 0.420046 0.029999
vn  1.417150 1.128360 0.493993
vn  1.015551 0.012744 0.055948
vn  0.130540 1.004742 0.071981
vn  0.010746 1.782566 0.529122
vn  2.014374 1.483820 0.978964
vn  1.572685 2.439934 0.008698
vn  0.058980 0.006747 0.654420
vn  0.294335 0.272286 0.602689
vn  0.072696 0.561481 0.545122
vn  0.026457 0.083327 0.653117
vn  0.071979 0.033360 0.653545
vn  0.382025 0.043232 0.607119
vn  0.428819 0.149981 0.586832
vn  0.074227 0.023539 0.653617
vn  1.016341 0.008797 0.050013
vn  2.954247 1.241917 1.397890
vn  2.410399 0.039658 1.058346
vn  1.014436 0.034893 0.060244
# 144 vertex normals

g Box01
usemtl 01_-_Default
f 14/145/14 52/52/52 53/53/53
f 72/146/72 21/21/21 19/19/19
f 78/78/78 104/104/104 137/137/137
f 136/136/136 113/113/113 82/82/82
f 3/3/3 36/36/36 93/93/93
f 108/108/108 73/73/73 6/6/6
f 26/26/26 68/68/68 125/125/125
f 144/144/144 97/97/97 30/30/30
f 57/57/57 46/46/46 124/124/124
f 120/120/120 129/129/129 62/62/62
f 37/37/37 10/10/10 92/92/92
f 88/88/88 109/109/109 42/42/42
f 2/2/2 20/20/20 24/24/24
f 24/24/24 33/33/33 2/2/2
f 5/5/5 4/4/4 96/96/96
f 96/96/96 105/105/105 5/5/5
f 9/9/9 7/7/7 76/76/76
f 76/76/76 89/89/89 9/9/9
f 13/13/13 11/11/11 40/40/40
f 40/40/40 49/49/49 13/13/13
f 18/18/18 15/15/15 56/147/56
f 56/147/56 69/148/69 18/18/18
f 1/1/1 8/8/8 12/12/12
f 1/1/1 12/12/12 16/16/16
f 1/1/1 16/16/16 17/17/17
f 25/25/25 22/22/22 71/71/71
f 71/71/71 65/65/65 25/25/25
f 29/29/29 27/27/27 128/128/128
f 128/128/128 141/141/141 29/29/29
f 35/35/35 31/31/31 100/100/100
f 100/100/100 94/94/94 35/35/35
f 34/34/34 23/23/23 28/28/28
f 28/28/28 32/32/32 34/34/34
f 41/41/41 38/38/38 91/91/91
f 91/91/91 85/85/85 41/41/41
f 45/45/45 43/43/43 112/112/112
f 112/112/112 121/121/121 45/45/45
f 51/51/51 47/47/47 60/60/60
f 60/60/60 54/54/54 51/51/51
f 48/48/48 50/50/50 39/39/39
f 39/39/39 44/44/44 48/48/48
f 61/61/61 58/58/58 123/123/123
f 123/123/123 117/117/117 61/61/61
f 67/67/67 63/63/63 132/132/132
f 132/132/132 126/126/126 67/67/67
f 59/59/59 64/64/64 66/66/66
f 59/59/59 66/66/66 70/70/70
f 55/55/55 59/59/59 70/70/70
f 77/77/77 74/74/74 107/107/107
f 107/107/107 101/101/101 77/77/77
f 81/81/81 79/79/79 140/140/140
f 140/140/140 133/133/133 81/81/81
f 87/87/87 83/83/83 116/116/116
f 116/116/116 110/110/110 87/87/87
f 80/80/80 84/84/84 86/86/86
f 75/75/75 80/80/80 86/86/86
f 75/75/75 86/86/86 90/90/90
f 103/103/103 98/98/98 143/143/143
f 143/143/143 138/138/138 103/103/103
f 99/99/99 102/102/102 106/106/106
f 106/106/106 95/95/95 99/99/99
f 119/119/119 114/114/114 135/135/135
f 135/135/135 130/130/130 119/119/119
f 111/111/111 115/115/115 118/118/118
f 118/118/118 122/122/122 111/111/111
f 134/134/134 139/139/139 142/142/142
f 131/131/131 134/134/134 142/142/142
f 127/127/127 131/131/131 142/142/142
f 1/1/1 4/4/4 5/5/5
f 5/5/5 8/8/8 1/1/1
f 2/2/2 1/1/1 17/17/17
f 17/17/17 20/20/20 2/2/2
f 3/3/3 2/2/2 33/33/33
f 33/33/33 36/36/36 3/3/3
f 4/4/4 3/3/3 93/93/93
f 93/93/93 96/96/96 4/4/4
f 1/1/1 2/2/2 3/3/3
f 3/3/3 4/4/4 1/1/1
f 6/6/6 5/5/5 105/105/105
f 105/105/105 108/108/108 6/6/6
f 7/7/7 6/6/6 73/73/73
f 73/73/73 76/76/76 7/7/7
f 8/8/8 7/7/7 9/9/9
f 9/9/9 12/12/12 8/8/8
f 8/8/8 5/5/5 6/6/6
f 6/6/6 7/7/7 8/8/8
f 10/10/10 9/9/9 89/89/89
f 89/89/89 92/92/92 10/10/10
f 11/11/11 10/10/10 37/37/37
f 37/37/37 40/40/40 11/11/11
f 12/12/12 11/11/11 13/13/13
f 13/13/13 16/16/16 12/12/12
f 12/12/12 9/9/9 10/10/10
f 10/10/10 11/11/11 12/12/12
f 14/14/14 13/13/13 49/49/49
f 49/49/49 52/52/52 14/14/14
f 15/15/15 14/14/14 53/149/53
f 53/149/53 56/147/56 15/15/15
f 16/16/16 15/15/15 18/18/18
f 18/18/18 17/17/17 16/16/16
f 16/16/16 13/13/13 14/14/14
f 14/14/14 15/15/15 16/16/16
f 19/19/19 18/18/18 69/148/69
f 69/148/69 72/146/72 19/19/19
f 20/20/20 19/19/19 21/21/21
f 21/21/21 24/24/24 20/20/20
f 17/17/17 18/18/18 19/19/19
f 19/19/19 20/20/20 17/17/17
f 22/22/22 21/21/21 72/72/72
f 72/72/72 71/71/71 22/22/22
f 23/23/23 22/22/22 25/25/25
f 25/25/25 28/28/28 23/23/23
f 24/24/24 23/23/23 34/34/34
f 34/34/34 33/33/33 24/24/24
f 23/23/23 24/24/24 21/21/21
f 21/21/21 22/22/22 23/23/23
f 26/26/26 25/25/25 65/65/65
f 65/65/65 68/68/68 26/26/26
f 27/27/27 26/26/26 125/125/125
f 125/125/125 128/128/128 27/27/27
f 28/28/28 27/27/27 29/29/29
f 29/29/29 32/32/32 28/28/28
f 28/28/28 25/25/25 26/26/26
f 26/26/26 27/27/27 28/28/28
f 30/30/30 29/29/29 141/141/141
f 141/141/141 144/144/144 30/30/30
f 31/31/31 30/30/30 97/97/97
f 97/97/97 100/100/100 31/31/31
f 32/32/32 31/31/31 35/35/35
f 35/35/35 34/34/34 32/32/32
f 32/32/32 29/29/29 30/30/30
f 30/30/30 31/31/31 32/32/32
f 36/36/36 35/35/35 94/94/94
f 94/94/94 93/93/93 36/36/36
f 34/34/34 35/35/35 36/36/36
f 36/36/36 33/33/33 34/34/34
f 38/38/38 37/37/37 92/92/92
f 92/92/92 91/91/91 38/38/38
f 39/39/39 38/38/38 41/41/41
f 41/41/41 44/44/44 39/39/39
f 40/40/40 39/39/39 50/50/50
f 50/50/50 49/49/49 40/40/40
f 39/39/39 40/40/40 37/37/37
f 37/37/37 38/38/38 39/39/39
f 42/42/42 41/41/41 85/85/85
f 85/85/85 88/88/88 42/42/42
f 43/43/43 42/42/42 109/109/109
f 109/109/109 112/112/112 43/43/43
f 44/44/44 43/43/43 45/45/45
f 45/45/45 48/48/48 44/44/44
f 44/44/44 41/41/41 42/42/42
f 42/42/42 43/43/43 44/44/44
f 46/46/46 45/45/45 121/121/121
f 121/121/121 124/124/124 46/46/46
f 47/47/47 46/46/46 57/57/57
f 57/57/57 60/60/60 47/47/47
f 48/48/48 47/47/47 51/51/51
f 51/51/51 50/50/50 48/48/48
f 48/48/48 45/45/45 46/46/46
f 46/46/46 47/47/47 48/48/48
f 52/52/52 51/51/51 54/54/54
f 54/54/54 53/53/53 52/52/52
f 50/50/50 51/51/51 52/52/52
f 52/52/52 49/49/49 50/50/50
f 55/55/55 54/54/54 60/60/60
f 60/60/60 59/59/59 55/55/55
f 56/56/56 55/55/55 70/70/70
f 70/70/70 69/69/69 56/56/56
f 55/55/55 56/56/56 53/53/53
f 53/53/53 54/54/54 55/55/55
f 58/58/58 57/57/57 124/124/124
f 124/124/124 123/123/123 58/58/58
f 59/59/59 58/58/58 61/61/61
f 61/61/61 64/64/64 59/59/59
f 59/59/59 60/60/60 57/57/57
f 57/57/57 58/58/58 59/59/59
f 62/62/62 61/61/61 117/117/117
f 117/117/117 120/120/120 62/62/62
f 63/63/63 62/62/62 129/129/129
f 129/129/129 132/132/132 63/63/63
f 64/64/64 63/63/63 67/67/67
f 67/67/67 66/66/66 64/64/64
f 64/64/64 61/61/61 62/62/62
f 62/62/62 63/63/63 64/64/64
f 66/66/66 65/65/65 71/71/71
f 71/71/71 70/70/70 66/66/66
f 68/68/68 67/67/67 126/126/126
f 126/126/126 125/125/125 68/68/68
f 66/66/66 67/67/67 68/68/68
f 68/68/68 65/65/65 66/66/66
f 70/70/70 71/71/71 72/72/72
f 72/72/72 69/69/69 70/70/70
f 74/74/74 73/73/73 108/108/108
f 108/108/108 107/107/107 74/74/74
f 75/75/75 74/74/74 77/77/77
f 77/77/77 80/80/80 75/75/75
f 76/76/76 75/75/75 90/90/90
f 90/90/90 89/89/89 76/76/76
f 75/75/75 76/76/76 73/73/73
f 73/73/73 74/74/74 75/75/75
f 78/78/78 77/77/77 101/101/101
f 101/101/101 104/104/104 78/78/78
f 79/79/79 78/78/78 137/137/137
f 137/137/137 140/140/140 79/79/79
f 80/80/80 79/79/79 81/81/81
f 81/81/81 84/84/84 80/80/80
f 80/80/80 77/77/77 78/78/78
f 78/78/78 79/79/79 80/80/80
f 82/82/82 81/81/81 133/133/133
f 133/133/133 136/136/136 82/82/82
f 83/83/83 82/82/82 113/113/113
f 113/113/113 116/116/116 83/83/83
f 84/84/84 83/83/83 87/87/87
f 87/87/87 86/86/86 84/84/84
f 84/84/84 81/81/81 82/82/82
f 82/82/82 83/83/83 84/84/84
f 86/86/86 85/85/85 91/91/91
f 91/91/91 90/90/90 86/86/86
f 88/88/88 87/87/87 110/110/110
f 110/110/110 109/109/109 88/88/88
f 86/86/86 87/87/87 88/88/88
f 88/88/88 85/85/85 86/86/86
f 90/90/90 91/91/91 92/92/92
f 92/92/92 89/89/89 90/90/90
f 95/95/95 94/94/94 100/100/100
f 100/100/100 99/99/99 95/95/95
f 96/96/96 95/95/95 106/106/106
f 106/106/106 105/105/105 96/96/96
f 95/95/95 96/96/96 93/93/93
f 93/93/93 94/94/94 95/95/95
f 98/98/98 97/97/97 144/144/144
f 144/144/144 143/143/143 98/98/98
f 99/99/99 98/98/98 103/103/103
f 103/103/103 102/102/102 99/99/99
f 99/99/99 100/100/100 97/97/97
f 97/97/97 98/98/98 99/99/99
f 102/102/102 101/101/101 107/107/107
f 107/107/107 106/106/106 102/102/102
f 104/104/104 103/103/103 138/138/138
f 138/138/138 137/137/137 104/104/104
f 102/102/102 103/103/103 104/104/104
f 104/104/104 101/101/101 102/102/102
f 106/106/106 107/107/107 108/108/108
f 108/108/108 105/105/105 106/106/106
f 111/111/111 110/110/110 116/116/116
f 116/116/116 115/115/115 111/111/111
f 112/112/112 111/111/111 122/122/122
f 122/122/122 121/121/121 112/112/112
f 111/111/111 112/112/112 109/109/109
f 109/109/109 110/110/110 111/111/111
f 114/114/114 113/113/113 136/136/136
f 136/136/136 135/135/135 114/114/114
f 115/115/115 114/114/114 119/119/119
f 119/119/119 118/118/118 115/115/115
f 115/115/115 116/116/116 113/113/113
f 113/113/113 114/114/114 115/115/115
f 118/118/118 117/117/117 123/123/123
f 123/123/123 122/122/122 118/118/118
f 120/120/120 119/119/119 130/130/130
f 130/130/130 129/129/129 120/120/120
f 118/118/118 119/119/119 120/120/120
f 120/120/120 117/117/117 118/118/118
f 122/122/122 123/123/123 124/124/124
f 124/124/124 121/121/121 122/122/122
f 127/127/127 126/126/126 132/132/132
f 132/132/132 131/131/131 127/127/127
f 128/128/128 127/127/127 142/142/142
f 142/142/142 141/141/141 128/128/128
f 127/127/127 128/128/128 125/125/125
f 125/125/125 126/126/126 127/127/127
f 131/131/131 130/130/130 135/135/135
f 135/135/135 134/134/134 131/131/131
f 131/131/131 132/132/132 129/129/129
f 129/129/129 130/130/130 131/131/131
f 134/134/134 133/133/133 140/140/140
f 140/140/140 139/139/139 134/134/134
f 134/134/134 135/135/135 136/136/136
f 136/136/136 133/133/133 134/134/134
f 139/139/139 138/138/138 143/143/143
f 143/143/143 142/142/142 139/139/139
f 139/139/139 140/140/140 137/137/137
f 137/137/137 138/138/138 139/139/139
f 142/142/142 143/143/143 144/144/144
f 144/144/144 141/141/141 142/142/142
# 284 faces

g
