# Blender3D v243 OBJ File: sentinel.blend
# www.blender3d.org
mtllib tree1_lowres.mtl
o Cylinder01_02_-_Defa
v 0.000000 0.000000 0.000000
v 0.050000 0.086603 -0.000000
v 0.100000 0.000000 0.000000
v -0.050000 0.086603 -0.000000
v -0.100000 0.000000 0.000000
v -0.050000 -0.086603 0.000000
v 0.050000 -0.086603 0.000000
v 0.050000 0.086603 0.100000
v 0.100000 0.000000 0.100000
v -0.050000 0.086603 0.100000
v -0.100000 0.000000 0.100000
v -0.050000 -0.086603 0.100000
v 0.050000 -0.086603 0.100000
v 0.050000 0.086603 0.200000
v 0.100000 0.000000 0.200000
v -0.050000 0.086603 0.200000
v -0.100000 0.000000 0.200000
v -0.050000 -0.086603 0.200000
v 0.050000 -0.086603 0.200000
v 0.050000 0.086603 0.300000
v 0.100000 0.000000 0.300000
v -0.050000 0.086603 0.300000
v -0.100000 0.000000 0.300000
v -0.050000 -0.086603 0.300000
v 0.050000 -0.086603 0.300000
v 0.050000 0.086603 0.400000
v 0.100000 0.000000 0.400000
v -0.050000 0.086603 0.400000
v -0.100000 0.000000 0.400000
v -0.050000 -0.086603 0.400000
v 0.050000 -0.086603 0.400000
v 0.050000 0.086603 0.500000
v 0.100000 0.000000 0.500000
v -0.050000 0.086603 0.500000
v -0.100000 0.000000 0.500000
v -0.050000 -0.086603 0.500000
v 0.050000 -0.086603 0.500000
v 0.000000 0.000000 0.500000
vt 0.500000 0.000000 0.0
vt 0.916667 0.000000 0.0
vt 0.750000 0.000000 0.0
vt 0.500000 0.000000 0.0
vt 0.083333 0.000000 0.0
vt -0.083333 0.000000 0.0
vt 0.500000 0.000000 0.0
vt 0.250000 0.000000 0.0
vt 0.083333 0.000000 0.0
vt 0.500000 0.000000 0.0
vt 0.416667 0.000000 0.0
vt 0.250000 0.000000 0.0
vt 0.500000 0.000000 0.0
vt 0.583333 0.000000 0.0
vt 0.416667 0.000000 0.0
vt 0.500000 0.000000 0.0
vt 0.750000 0.000000 0.0
vt 0.583333 0.000000 0.0
vt 0.750000 0.000000 0.0
vt 0.916667 0.200000 0.0
vt 0.750000 0.200000 0.0
vt 0.750000 0.000000 0.0
vt 0.916667 0.000000 0.0
vt 0.916667 0.200000 0.0
vt -0.083333 0.000000 0.0
vt 0.083333 0.200000 0.0
vt -0.083333 0.200000 0.0
vt -0.083333 0.000000 0.0
vt 0.083333 0.000000 0.0
vt 0.083333 0.200000 0.0
vt 0.083333 0.000000 0.0
vt 0.250000 0.200000 0.0
vt 0.083333 0.200000 0.0
vt 0.083333 0.000000 0.0
vt 0.250000 0.000000 0.0
vt 0.250000 0.200000 0.0
vt 0.250000 0.000000 0.0
vt 0.416667 0.200000 0.0
vt 0.250000 0.200000 0.0
vt 0.250000 0.000000 0.0
vt 0.416667 0.000000 0.0
vt 0.416667 0.200000 0.0
vt 0.416667 0.000000 0.0
vt 0.583333 0.200000 0.0
vt 0.416667 0.200000 0.0
vt 0.416667 0.000000 0.0
vt 0.583333 0.000000 0.0
vt 0.583333 0.200000 0.0
vt 0.583333 0.000000 0.0
vt 0.750000 0.200000 0.0
vt 0.583333 0.200000 0.0
vt 0.583333 0.000000 0.0
vt 0.750000 0.000000 0.0
vt 0.750000 0.200000 0.0
vt 0.750000 0.200000 0.0
vt 0.916667 0.400000 0.0
vt 0.750000 0.400000 0.0
vt 0.750000 0.200000 0.0
vt 0.916667 0.200000 0.0
vt 0.916667 0.400000 0.0
vt -0.083333 0.200000 0.0
vt 0.083333 0.400000 0.0
vt -0.083333 0.400000 0.0
vt -0.083333 0.200000 0.0
vt 0.083333 0.200000 0.0
vt 0.083333 0.400000 0.0
vt 0.083333 0.200000 0.0
vt 0.250000 0.400000 0.0
vt 0.083333 0.400000 0.0
vt 0.083333 0.200000 0.0
vt 0.250000 0.200000 0.0
vt 0.250000 0.400000 0.0
vt 0.250000 0.200000 0.0
vt 0.416667 0.400000 0.0
vt 0.250000 0.400000 0.0
vt 0.250000 0.200000 0.0
vt 0.416667 0.200000 0.0
vt 0.416667 0.400000 0.0
vt 0.416667 0.200000 0.0
vt 0.583333 0.400000 0.0
vt 0.416667 0.400000 0.0
vt 0.416667 0.200000 0.0
vt 0.583333 0.200000 0.0
vt 0.583333 0.400000 0.0
vt 0.583333 0.200000 0.0
vt 0.750000 0.400000 0.0
vt 0.583333 0.400000 0.0
vt 0.583333 0.200000 0.0
vt 0.750000 0.200000 0.0
vt 0.750000 0.400000 0.0
vt 0.750000 0.400000 0.0
vt 0.916667 0.600000 0.0
vt 0.750000 0.600000 0.0
vt 0.750000 0.400000 0.0
vt 0.916667 0.400000 0.0
vt 0.916667 0.600000 0.0
vt -0.083333 0.400000 0.0
vt 0.083333 0.600000 0.0
vt -0.083333 0.600000 0.0
vt -0.083333 0.400000 0.0
vt 0.083333 0.400000 0.0
vt 0.083333 0.600000 0.0
vt 0.083333 0.400000 0.0
vt 0.250000 0.600000 0.0
vt 0.083333 0.600000 0.0
vt 0.083333 0.400000 0.0
vt 0.250000 0.400000 0.0
vt 0.250000 0.600000 0.0
vt 0.250000 0.400000 0.0
vt 0.416667 0.600000 0.0
vt 0.250000 0.600000 0.0
vt 0.250000 0.400000 0.0
vt 0.416667 0.400000 0.0
vt 0.416667 0.600000 0.0
vt 0.416667 0.400000 0.0
vt 0.583333 0.600000 0.0
vt 0.416667 0.600000 0.0
vt 0.416667 0.400000 0.0
vt 0.583333 0.400000 0.0
vt 0.583333 0.600000 0.0
vt 0.583333 0.400000 0.0
vt 0.750000 0.600000 0.0
vt 0.583333 0.600000 0.0
vt 0.583333 0.400000 0.0
vt 0.750000 0.400000 0.0
vt 0.750000 0.600000 0.0
vt 0.750000 0.600000 0.0
vt 0.916667 0.800000 0.0
vt 0.750000 0.800000 0.0
vt 0.750000 0.600000 0.0
vt 0.916667 0.600000 0.0
vt 0.916667 0.800000 0.0
vt -0.083333 0.600000 0.0
vt 0.083333 0.800000 0.0
vt -0.083333 0.800000 0.0
vt -0.083333 0.600000 0.0
vt 0.083333 0.600000 0.0
vt 0.083333 0.800000 0.0
vt 0.083333 0.600000 0.0
vt 0.250000 0.800000 0.0
vt 0.083333 0.800000 0.0
vt 0.083333 0.600000 0.0
vt 0.250000 0.600000 0.0
vt 0.250000 0.800000 0.0
vt 0.250000 0.600000 0.0
vt 0.416667 0.800000 0.0
vt 0.250000 0.800000 0.0
vt 0.250000 0.600000 0.0
vt 0.416667 0.600000 0.0
vt 0.416667 0.800000 0.0
vt 0.416667 0.600000 0.0
vt 0.583333 0.800000 0.0
vt 0.416667 0.800000 0.0
vt 0.416667 0.600000 0.0
vt 0.583333 0.600000 0.0
vt 0.583333 0.800000 0.0
vt 0.583333 0.600000 0.0
vt 0.750000 0.800000 0.0
vt 0.583333 0.800000 0.0
vt 0.583333 0.600000 0.0
vt 0.750000 0.600000 0.0
vt 0.750000 0.800000 0.0
vt 0.750000 0.800000 0.0
vt 0.916667 1.000000 0.0
vt 0.750000 1.000000 0.0
vt 0.750000 0.800000 0.0
vt 0.916667 0.800000 0.0
vt 0.916667 1.000000 0.0
vt -0.083333 0.800000 0.0
vt 0.083333 1.000000 0.0
vt -0.083333 1.000000 0.0
vt -0.083333 0.800000 0.0
vt 0.083333 0.800000 0.0
vt 0.083333 1.000000 0.0
vt 0.083333 0.800000 0.0
vt 0.250000 1.000000 0.0
vt 0.083333 1.000000 0.0
vt 0.083333 0.800000 0.0
vt 0.250000 0.800000 0.0
vt 0.250000 1.000000 0.0
vt 0.250000 0.800000 0.0
vt 0.416667 1.000000 0.0
vt 0.250000 1.000000 0.0
vt 0.250000 0.800000 0.0
vt 0.416667 0.800000 0.0
vt 0.416667 1.000000 0.0
vt 0.416667 0.800000 0.0
vt 0.583333 1.000000 0.0
vt 0.416667 1.000000 0.0
vt 0.416667 0.800000 0.0
vt 0.583333 0.800000 0.0
vt 0.583333 1.000000 0.0
vt 0.583333 0.800000 0.0
vt 0.750000 1.000000 0.0
vt 0.583333 1.000000 0.0
vt 0.583333 0.800000 0.0
vt 0.750000 0.800000 0.0
vt 0.750000 1.000000 0.0
vt 0.500000 1.000000 0.0
vt 0.750000 1.000000 0.0
vt 0.916667 1.000000 0.0
vt 0.500000 1.000000 0.0
vt -0.083333 1.000000 0.0
vt 0.083333 1.000000 0.0
vt 0.500000 1.000000 0.0
vt 0.083333 1.000000 0.0
vt 0.250000 1.000000 0.0
vt 0.500000 1.000000 0.0
vt 0.250000 1.000000 0.0
vt 0.416667 1.000000 0.0
vt 0.500000 1.000000 0.0
vt 0.416667 1.000000 0.0
vt 0.583333 1.000000 0.0
vt 0.500000 1.000000 0.0
vt 0.583333 1.000000 0.0
vt 0.750000 1.000000 0.0
vn -0.000000 -0.000000 -1.000000
vn 0.866027 0.499998 -0.000000
vn 0.000000 1.000000 -0.000000
vn -0.866027 0.499998 -0.000000
vn -0.866027 -0.499998 0.000000
vn 0.000000 -1.000000 0.000000
vn 0.866027 -0.499998 0.000000
vn 0.000000 0.000000 1.000000
usemtl 02_-_Default
s 1
f 1/1/1 2/2/1 3/3/1
f 1/4/1 4/5/1 2/6/1
f 1/7/1 5/8/1 4/9/1
f 1/10/1 6/11/1 5/12/1
f 1/13/1 7/14/1 6/15/1
f 1/16/1 3/17/1 7/18/1
f 3/19/2 8/20/2 9/21/2
f 3/22/2 2/23/2 8/24/2
f 2/25/3 10/26/3 8/27/3
f 2/28/3 4/29/3 10/30/3
f 4/31/4 11/32/4 10/33/4
f 4/34/4 5/35/4 11/36/4
f 5/37/5 12/38/5 11/39/5
f 5/40/5 6/41/5 12/42/5
f 6/43/6 13/44/6 12/45/6
f 6/46/6 7/47/6 13/48/6
f 7/49/7 9/50/7 13/51/7
f 7/52/7 3/53/7 9/54/7
f 9/55/2 14/56/2 15/57/2
f 9/58/2 8/59/2 14/60/2
f 8/61/3 16/62/3 14/63/3
f 8/64/3 10/65/3 16/66/3
f 10/67/4 17/68/4 16/69/4
f 10/70/4 11/71/4 17/72/4
f 11/73/5 18/74/5 17/75/5
f 11/76/5 12/77/5 18/78/5
f 12/79/6 19/80/6 18/81/6
f 12/82/6 13/83/6 19/84/6
f 13/85/7 15/86/7 19/87/7
f 13/88/7 9/89/7 15/90/7
f 15/91/2 20/92/2 21/93/2
f 15/94/2 14/95/2 20/96/2
f 14/97/3 22/98/3 20/99/3
f 14/100/3 16/101/3 22/102/3
f 16/103/4 23/104/4 22/105/4
f 16/106/4 17/107/4 23/108/4
f 17/109/5 24/110/5 23/111/5
f 17/112/5 18/113/5 24/114/5
f 18/115/6 25/116/6 24/117/6
f 18/118/6 19/119/6 25/120/6
f 19/121/7 21/122/7 25/123/7
f 19/124/7 15/125/7 21/126/7
f 21/127/2 26/128/2 27/129/2
f 21/130/2 20/131/2 26/132/2
f 20/133/3 28/134/3 26/135/3
f 20/136/3 22/137/3 28/138/3
f 22/139/4 29/140/4 28/141/4
f 22/142/4 23/143/4 29/144/4
f 23/145/5 30/146/5 29/147/5
f 23/148/5 24/149/5 30/150/5
f 24/151/6 31/152/6 30/153/6
f 24/154/6 25/155/6 31/156/6
f 25/157/7 27/158/7 31/159/7
f 25/160/7 21/161/7 27/162/7
f 27/163/2 32/164/2 33/165/2
f 27/166/2 26/167/2 32/168/2
f 26/169/3 34/170/3 32/171/3
f 26/172/3 28/173/3 34/174/3
f 28/175/4 35/176/4 34/177/4
f 28/178/4 29/179/4 35/180/4
f 29/181/5 36/182/5 35/183/5
f 29/184/5 30/185/5 36/186/5
f 30/187/6 37/188/6 36/189/6
f 30/190/6 31/191/6 37/192/6
f 31/193/7 33/194/7 37/195/7
f 31/196/7 27/197/7 33/198/7
f 38/199/8 33/200/8 32/201/8
f 38/202/8 32/203/8 34/204/8
f 38/205/8 34/206/8 35/207/8
f 38/208/8 35/209/8 36/210/8
f 38/211/8 36/212/8 37/213/8
f 38/214/8 37/215/8 33/216/8
o Cone01_03_-_Default
v 0.000000 0.000000 0.500000
v 0.250000 0.433013 0.500000
v 0.500000 0.000000 0.500000
v -0.250000 0.433013 0.500000
v -0.500000 0.000000 0.500000
v -0.250000 -0.433013 0.500000
v 0.250000 -0.433013 0.500000
v 0.200000 0.346410 0.819180
v 0.400000 0.000000 0.819180
v -0.200000 0.346410 0.819180
v -0.400000 0.000000 0.819180
v -0.200000 -0.346410 0.819180
v 0.200000 -0.346410 0.819180
v 0.150000 0.259808 1.138361
v 0.300000 0.000000 1.138361
v -0.150000 0.259808 1.138361
v -0.300000 0.000000 1.138361
v -0.150000 -0.259808 1.138361
v 0.150000 -0.259808 1.138361
v 0.100000 0.173205 1.457541
v 0.200000 0.000000 1.457541
v -0.100000 0.173205 1.457541
v -0.200000 0.000000 1.457541
v -0.100000 -0.173205 1.457541
v 0.100000 -0.173205 1.457541
v 0.050000 0.086603 1.776721
v 0.100000 0.000000 1.776721
v -0.050000 0.086603 1.776721
v -0.100000 0.000000 1.776721
v -0.050000 -0.086603 1.776721
v 0.050000 -0.086603 1.776721
v 0.000000 0.000000 2.095902
v 0.000000 0.000000 2.095902
v 0.000000 0.000000 2.095902
v 0.000000 0.000000 2.095902
v 0.000000 0.000000 2.095902
v 0.000000 0.000000 2.095902
v 0.000000 0.000000 2.095902
vt 0.500000 0.500000 0.0
vt 0.283710 0.624875 0.0
vt 0.500000 0.749750 0.0
vt 0.500000 0.500000 0.0
vt 0.283710 0.375125 0.0
vt 0.283710 0.624875 0.0
vt 0.500000 0.500000 0.0
vt 0.500000 0.250250 0.0
vt 0.283710 0.375125 0.0
vt 0.500000 0.500000 0.0
vt 0.716290 0.375125 0.0
vt 0.500000 0.250250 0.0
vt 0.500000 0.500000 0.0
vt 0.716290 0.624875 0.0
vt 0.716290 0.375125 0.0
vt 0.500000 0.500000 0.0
vt 0.500000 0.749750 0.0
vt 0.716290 0.624875 0.0
vt 0.750000 -0.166667 0.0
vt 0.916667 0.033333 0.0
vt 0.750000 0.033333 0.0
vt 0.750000 -0.166667 0.0
vt 0.916667 -0.166667 0.0
vt 0.916667 0.033333 0.0
vt -0.083333 -0.166667 0.0
vt 0.083333 0.033333 0.0
vt -0.083333 0.033333 0.0
vt -0.083333 -0.166667 0.0
vt 0.083333 -0.166667 0.0
vt 0.083333 0.033333 0.0
vt 0.083333 -0.166667 0.0
vt 0.250000 0.033333 0.0
vt 0.083333 0.033333 0.0
vt 0.083333 -0.166667 0.0
vt 0.250000 -0.166667 0.0
vt 0.250000 0.033333 0.0
vt 0.250000 -0.166667 0.0
vt 0.416667 0.033333 0.0
vt 0.250000 0.033333 0.0
vt 0.250000 -0.166667 0.0
vt 0.416667 -0.166667 0.0
vt 0.416667 0.033333 0.0
vt 0.416667 -0.166667 0.0
vt 0.583333 0.033333 0.0
vt 0.416667 0.033333 0.0
vt 0.416667 -0.166667 0.0
vt 0.583333 -0.166667 0.0
vt 0.583333 0.033333 0.0
vt 0.583333 -0.166667 0.0
vt 0.750000 0.033333 0.0
vt 0.583333 0.033333 0.0
vt 0.583333 -0.166667 0.0
vt 0.750000 -0.166667 0.0
vt 0.750000 0.033333 0.0
vt 0.750000 0.033333 0.0
vt 0.916667 0.233333 0.0
vt 0.750000 0.233333 0.0
vt 0.750000 0.033333 0.0
vt 0.916667 0.033333 0.0
vt 0.916667 0.233333 0.0
vt -0.083333 0.033333 0.0
vt 0.083333 0.233333 0.0
vt -0.083333 0.233333 0.0
vt -0.083333 0.033333 0.0
vt 0.083333 0.033333 0.0
vt 0.083333 0.233333 0.0
vt 0.083333 0.033333 0.0
vt 0.250000 0.233333 0.0
vt 0.083333 0.233333 0.0
vt 0.083333 0.033333 0.0
vt 0.250000 0.033333 0.0
vt 0.250000 0.233333 0.0
vt 0.250000 0.033333 0.0
vt 0.416667 0.233333 0.0
vt 0.250000 0.233333 0.0
vt 0.250000 0.033333 0.0
vt 0.416667 0.033333 0.0
vt 0.416667 0.233333 0.0
vt 0.416667 0.033333 0.0
vt 0.583333 0.233333 0.0
vt 0.416667 0.233333 0.0
vt 0.416667 0.033333 0.0
vt 0.583333 0.033333 0.0
vt 0.583333 0.233333 0.0
vt 0.583333 0.033333 0.0
vt 0.750000 0.233333 0.0
vt 0.583333 0.233333 0.0
vt 0.583333 0.033333 0.0
vt 0.750000 0.033333 0.0
vt 0.750000 0.233333 0.0
vt 0.750000 0.233333 0.0
vt 0.916667 0.433333 0.0
vt 0.750000 0.433333 0.0
vt 0.750000 0.233333 0.0
vt 0.916667 0.233333 0.0
vt 0.916667 0.433333 0.0
vt -0.083333 0.233333 0.0
vt 0.083333 0.433333 0.0
vt -0.083333 0.433333 0.0
vt -0.083333 0.233333 0.0
vt 0.083333 0.233333 0.0
vt 0.083333 0.433333 0.0
vt 0.083333 0.233333 0.0
vt 0.250000 0.433333 0.0
vt 0.083333 0.433333 0.0
vt 0.083333 0.233333 0.0
vt 0.250000 0.233333 0.0
vt 0.250000 0.433333 0.0
vt 0.250000 0.233333 0.0
vt 0.416667 0.433333 0.0
vt 0.250000 0.433333 0.0
vt 0.250000 0.233333 0.0
vt 0.416667 0.233333 0.0
vt 0.416667 0.433333 0.0
vt 0.416667 0.233333 0.0
vt 0.583333 0.433333 0.0
vt 0.416667 0.433333 0.0
vt 0.416667 0.233333 0.0
vt 0.583333 0.233333 0.0
vt 0.583333 0.433333 0.0
vt 0.583333 0.233333 0.0
vt 0.750000 0.433333 0.0
vt 0.583333 0.433333 0.0
vt 0.583333 0.233333 0.0
vt 0.750000 0.233333 0.0
vt 0.750000 0.433333 0.0
vt 0.750000 0.433333 0.0
vt 0.916667 0.633333 0.0
vt 0.750000 0.633333 0.0
vt 0.750000 0.433333 0.0
vt 0.916667 0.433333 0.0
vt 0.916667 0.633333 0.0
vt -0.083333 0.433333 0.0
vt 0.083333 0.633333 0.0
vt -0.083333 0.633333 0.0
vt -0.083333 0.433333 0.0
vt 0.083333 0.433333 0.0
vt 0.083333 0.633333 0.0
vt 0.083333 0.433333 0.0
vt 0.250000 0.633333 0.0
vt 0.083333 0.633333 0.0
vt 0.083333 0.433333 0.0
vt 0.250000 0.433333 0.0
vt 0.250000 0.633333 0.0
vt 0.250000 0.433333 0.0
vt 0.416667 0.633333 0.0
vt 0.250000 0.633333 0.0
vt 0.250000 0.433333 0.0
vt 0.416667 0.433333 0.0
vt 0.416667 0.633333 0.0
vt 0.416667 0.433333 0.0
vt 0.583333 0.633333 0.0
vt 0.416667 0.633333 0.0
vt 0.416667 0.433333 0.0
vt 0.583333 0.433333 0.0
vt 0.583333 0.633333 0.0
vt 0.583333 0.433333 0.0
vt 0.750000 0.633333 0.0
vt 0.583333 0.633333 0.0
vt 0.583333 0.433333 0.0
vt 0.750000 0.433333 0.0
vt 0.750000 0.633333 0.0
vt 0.750000 0.633333 0.0
vt 0.500000 0.833333 0.0
vt 0.500000 0.833333 0.0
vt 0.750000 0.633333 0.0
vt 0.916667 0.633333 0.0
vt 0.500000 0.833333 0.0
vt 0.916667 0.633333 0.0
vt 0.500000 0.833333 0.0
vt 0.500000 0.833333 0.0
vt -0.083333 0.633333 0.0
vt 0.083333 0.633333 0.0
vt 0.500000 0.833333 0.0
vt 0.083333 0.633333 0.0
vt 0.500000 0.833333 0.0
vt 0.500000 0.833333 0.0
vt 0.083333 0.633333 0.0
vt 0.250000 0.633333 0.0
vt 0.500000 0.833333 0.0
vt 0.250000 0.633333 0.0
vt 0.500000 0.833333 0.0
vt 0.500000 0.833333 0.0
vt 0.250000 0.633333 0.0
vt 0.416667 0.633333 0.0
vt 0.500000 0.833333 0.0
vt 0.416667 0.633333 0.0
vt 0.500000 0.833333 0.0
vt 0.500000 0.833333 0.0
vt 0.416667 0.633333 0.0
vt 0.583333 0.633333 0.0
vt 0.500000 0.833333 0.0
vt 0.583333 0.633333 0.0
vt 0.500000 0.833333 0.0
vt 0.500000 0.833333 0.0
vt 0.583333 0.633333 0.0
vt 0.750000 0.633333 0.0
vt 0.500000 0.833333 0.0
vt 0.500000 0.833333 0.0
vt 0.500000 0.833333 0.0
vt 0.500000 0.833333 0.0
vt 0.500000 0.833333 0.0
vt 0.500000 0.833333 0.0
vt 0.500000 0.833333 0.0
vt 0.500000 0.833333 0.0
vt 0.500000 0.833333 0.0
vt 0.500000 0.833333 0.0
vt 0.500000 0.833333 0.0
vt 0.500000 0.833333 0.0
vt 0.500000 0.833333 0.0
vt 0.500000 0.833333 0.0
vt 0.500000 0.833333 0.0
vt 0.500000 0.833333 0.0
vt 0.500000 0.833333 0.0
vt 0.500000 0.833333 0.0
vt 0.500000 0.833333 0.0
vn 0.835806 0.482553 0.261860
vn 0.835806 0.482553 0.261861
vn 0.000000 0.965105 0.261862
vn -0.835806 0.482553 0.261861
vn -0.835806 0.482553 0.261860
vn -0.835806 -0.482553 0.261860
vn -0.835806 -0.482553 0.261861
vn 0.000000 -0.965105 0.261862
vn 0.835806 -0.482553 0.261861
vn 0.835806 -0.482553 0.261860
vn 0.835807 0.482552 0.261860
vn 0.835806 0.482553 0.261859
vn 0.000000 0.965106 0.261858
vn -0.835807 0.482553 0.261859
vn -0.835807 -0.482552 0.261860
vn -0.835806 -0.482553 0.261859
vn 0.000000 -0.965106 0.261858
vn 0.835807 -0.482553 0.261859
vn 0.835806 0.482552 0.261861
vn -0.835806 0.482552 0.261860
vn -0.835806 -0.482552 0.261861
vn 0.835806 -0.482552 0.261861
vn 0.835807 0.482551 0.261861
vn 0.000000 0.965106 0.261859
vn -0.835808 0.482551 0.261859
vn -0.835807 -0.482551 0.261861
vn 0.000000 -0.965106 0.261859
vn 0.835807 -0.482551 0.261859
vn 0.000000 0.000000 0.000000
vn 0.835807 0.482551 0.261860
vn 0.000000 0.965106 0.261861
vn -0.835807 0.482551 0.261860
vn -0.835807 -0.482551 0.261860
vn 0.000000 -0.965106 0.261861
vn 0.835807 -0.482551 0.261860
usemtl 03_-_Default
s 1
f 39/217/1 40/218/1 41/219/1
f 39/220/1 42/221/1 40/222/1
f 39/223/1 43/224/1 42/225/1
f 39/226/1 44/227/1 43/228/1
f 39/229/1 45/230/1 44/231/1
f 39/232/1 41/233/1 45/234/1
f 41/235/9 46/236/9 47/237/9
f 41/238/10 40/239/10 46/240/10
f 40/241/11 48/242/11 46/243/11
f 40/244/11 42/245/11 48/246/11
f 42/247/12 49/248/12 48/249/12
f 42/250/13 43/251/13 49/252/13
f 43/253/14 50/254/14 49/255/14
f 43/256/15 44/257/15 50/258/15
f 44/259/16 51/260/16 50/261/16
f 44/262/16 45/263/16 51/264/16
f 45/265/17 47/266/17 51/267/17
f 45/268/18 41/269/18 47/270/18
f 47/271/19 52/272/19 53/273/19
f 47/274/20 46/275/20 52/276/20
f 46/277/21 54/278/21 52/279/21
f 46/280/21 48/281/21 54/282/21
f 48/283/22 55/284/22 54/285/22
f 48/286/13 49/287/13 55/288/13
f 49/289/23 56/290/23 55/291/23
f 49/292/24 50/293/24 56/294/24
f 50/295/25 57/296/25 56/297/25
f 50/298/25 51/299/25 57/300/25
f 51/301/26 53/302/26 57/303/26
f 51/304/18 47/305/18 53/306/18
f 53/307/9 58/308/9 59/309/9
f 53/310/27 52/311/27 58/312/27
f 52/313/11 60/314/11 58/315/11
f 52/316/11 54/317/11 60/318/11
f 54/319/12 61/320/12 60/321/12
f 54/322/28 55/323/28 61/324/28
f 55/325/14 62/326/14 61/327/14
f 55/328/29 56/329/29 62/330/29
f 56/331/16 63/332/16 62/333/16
f 56/334/16 57/335/16 63/336/16
f 57/337/17 59/338/17 63/339/17
f 57/340/30 53/341/30 59/342/30
f 59/343/31 64/344/31 65/345/31
f 59/346/9 58/347/9 64/348/9
f 58/349/32 66/350/32 64/351/32
f 58/352/32 60/353/32 66/354/32
f 60/355/33 67/356/33 66/357/33
f 60/358/13 61/359/13 67/360/13
f 61/361/34 68/362/34 67/363/34
f 61/364/14 62/365/14 68/366/14
f 62/367/35 69/368/35 68/369/35
f 62/370/35 63/371/35 69/372/35
f 63/373/36 65/374/36 69/375/36
f 63/376/18 59/377/18 65/378/18
f 65/379/37 70/380/37 71/381/37
f 65/382/38 64/383/38 70/384/38
f 64/385/37 72/386/37 70/387/37
f 64/388/39 66/389/39 72/390/39
f 66/391/37 73/392/37 72/393/37
f 66/394/40 67/395/40 73/396/40
f 67/397/37 74/398/37 73/399/37
f 67/400/41 68/401/41 74/402/41
f 68/403/37 75/404/37 74/405/37
f 68/406/42 69/407/42 75/408/42
f 69/409/37 71/410/37 75/411/37
f 69/412/43 65/413/43 71/414/43
f 76/415/37 71/416/37 70/417/37
f 76/418/37 70/419/37 72/420/37
f 76/421/37 72/422/37 73/423/37
f 76/424/37 73/425/37 74/426/37
f 76/427/37 74/428/37 75/429/37
f 76/430/37 75/431/37 71/432/37
